<svg width="532" height="81" viewBox="0 0 532 81" fill="none" xmlns="http://www.w3.org/2000/svg">
<path d="M31.9596 36.5955V17.4639L24.8745 33.1973H17.2966L10.2115 17.4639V36.5955H0V1.67944H12.3693L21.1025 19.9105L29.8018 1.67944H42.1711V36.5955H31.9596Z" fill="#151515"/>
<path d="M58.8563 1.67944H47.2007V36.5955H58.8563V1.67944Z" fill="#151515"/>
<path d="M88.352 36.5955L74.4875 18.7552V36.5955H63.8853V1.67944H73.638L87.5534 19.6047V1.67944H98.1047V36.5955H88.352Z" fill="#151515"/>
<path d="M114.789 1.67944H103.134V36.5955H114.789V1.67944Z" fill="#151515"/>
<path d="M144.286 36.5955L130.421 18.7552V36.5955H119.819V1.67944H129.572L143.487 19.6047V1.67944H154.038V36.5955H144.286Z" fill="#151515"/>
<path d="M181.835 18.2115H191.843V32.8066C189.872 34.1318 187.425 35.2362 184.537 36.0858C181.631 36.9523 178.93 37.3771 176.415 37.3771C172.762 37.3771 169.483 36.5955 166.594 35.0154C163.689 33.4352 161.429 31.2604 159.781 28.4909C158.133 25.7214 157.317 22.5951 157.317 19.112C157.317 15.6289 158.167 12.5536 159.883 9.76708C161.599 6.99759 163.961 4.82277 166.968 3.27661C169.992 1.71346 173.391 0.931885 177.18 0.931885C179.932 0.931885 182.685 1.42462 185.454 2.42707C188.224 3.42953 190.534 4.75481 192.42 6.4199L185.828 14.3376C184.656 13.1822 183.279 12.2477 181.682 11.5681C180.085 10.8885 178.573 10.5487 177.129 10.5487C175.684 10.5487 174.308 10.9225 173.102 11.6701C171.895 12.4176 170.961 13.4371 170.281 14.7284C169.602 16.0197 169.279 17.4809 169.279 19.112C169.279 20.7431 169.619 22.2553 170.315 23.5636C170.995 24.8719 171.946 25.9083 173.153 26.6559C174.359 27.4035 175.718 27.7773 177.231 27.7773C178.505 27.7773 180.051 27.3695 181.852 26.5879V18.2285L181.835 18.2115Z" fill="#151515"/>
<path d="M0 44.3604H9.44687V47.0959H3.10931V76.5409H9.44687V79.2764H0V44.3604Z" fill="#151515"/>
<path d="M21.0855 55.1666C22.3768 55.8122 23.3792 56.7297 24.0928 57.9191C24.8064 59.1084 25.1632 60.4847 25.1632 62.0648C25.1632 63.645 24.8064 65.0382 24.0758 66.2106C23.3452 67.3999 22.3258 68.3004 20.9835 68.9631C19.6412 69.6087 18.0951 69.9316 16.328 69.9316H9.44678V54.2151H16.5319C18.265 54.2151 19.7772 54.5379 21.0855 55.1836M18.9446 64.8513C19.5053 64.1717 19.7942 63.2372 19.7942 62.0988C19.7942 60.9604 19.4883 59.9919 18.8767 59.2953C18.265 58.5987 17.4494 58.2419 16.43 58.2419H14.7139V65.8877H16.6848C17.6363 65.8877 18.4009 65.5479 18.9616 64.8513" fill="#151515"/>
<path d="M39.028 54.8943C40.3533 55.591 41.3897 56.5764 42.1373 57.8168C42.8849 59.0571 43.2587 60.4503 43.2587 62.0135C43.2587 63.5766 42.8849 64.9869 42.1373 66.2442C41.3897 67.5015 40.3533 68.487 39.028 69.1836C37.7027 69.8972 36.2075 70.254 34.5424 70.254C32.8773 70.254 31.3822 69.8972 30.0569 69.1836C28.7316 68.47 27.6952 67.4845 26.9476 66.2442C26.2 64.9869 25.8262 63.5766 25.8262 62.0135C25.8262 60.4503 26.2 59.0401 26.9476 57.7998C27.6952 56.5594 28.7316 55.591 30.0569 54.8943C31.3822 54.1977 32.8773 53.8579 34.5424 53.8579C36.2075 53.8579 37.7027 54.2147 39.028 54.9113M32.9283 58.6833C32.4016 59.0231 31.9938 59.4819 31.688 60.0595C31.3822 60.6372 31.2292 61.2999 31.2292 62.0305C31.2292 62.7611 31.3822 63.4237 31.688 64.0184C31.9938 64.6131 32.4186 65.0718 32.9283 65.4116C33.455 65.7515 34.0157 65.9214 34.6104 65.9214C35.2051 65.9214 35.7658 65.7515 36.2585 65.4116C36.7512 65.0718 37.142 64.6131 37.4309 64.0184C37.7197 63.4237 37.8556 62.7611 37.8556 62.0305C37.8556 61.2999 37.7197 60.6372 37.4309 60.0426C37.142 59.4479 36.7512 58.9891 36.2585 58.6663C35.7658 58.3435 35.2051 58.1736 34.6104 58.1736C34.0157 58.1736 33.438 58.3435 32.9283 58.6833Z" fill="#151515"/>
<path d="M43.0205 54.198H57.3097V58.2928H52.7732V69.9145H47.5231V58.2928H43.0205V54.198Z" fill="#151515"/>
<path d="M66.7564 44.3604V79.2764H57.3096V76.5409H63.6301V47.0959H57.3096V44.3604H66.7564Z" fill="#151515"/>
<path d="M98.0368 54.5381C96.5756 53.6546 95.1654 53.2129 93.7891 53.2129C92.4129 53.2129 91.1725 53.5697 90.0512 54.2833C88.9298 54.9969 88.0632 55.9824 87.4346 57.2397C86.8229 58.497 86.5001 59.9242 86.5001 61.5214C86.5001 63.1185 86.8059 64.5457 87.4346 65.837C88.0462 67.1113 88.9298 68.1138 90.0512 68.8444C91.1725 69.575 92.4299 69.9318 93.7891 69.9318C95.0634 69.9318 96.4227 69.558 97.8839 68.8104C99.3451 68.0628 100.636 67.0773 101.775 65.854L108.503 72.9731C106.532 75.131 104.153 76.847 101.401 78.1213C98.6315 79.3956 95.896 80.0413 93.1775 80.0413C89.6264 80.0413 86.4321 79.2597 83.6116 77.6796C80.7742 76.0994 78.5654 73.9076 76.9513 71.1041C75.3371 68.3007 74.5386 65.1574 74.5386 61.6743C74.5386 58.1912 75.3541 55.1328 77.0022 52.3803C78.6503 49.6448 80.9101 47.487 83.8155 45.9238C86.721 44.3607 89.9832 43.5791 93.6362 43.5791C96.3207 43.5791 99.0053 44.1738 101.724 45.3461C104.442 46.5185 106.702 48.0986 108.503 50.0526L101.775 57.9703C100.738 56.5431 99.481 55.3877 98.0368 54.5042" fill="#151515"/>
<path d="M137.914 45.9575C140.87 47.5207 143.164 49.6785 144.829 52.431C146.494 55.1835 147.31 58.2928 147.31 61.7419C147.31 65.1911 146.477 68.3683 144.829 71.1548C143.164 73.9413 140.87 76.1331 137.914 77.6963C134.975 79.2764 131.644 80.058 127.957 80.058C124.27 80.058 120.957 79.2764 118.001 77.6963C115.044 76.1161 112.751 73.9413 111.086 71.1548C109.421 68.3683 108.605 65.2251 108.605 61.7419C108.605 58.2588 109.438 55.1325 111.086 52.38C112.751 49.6275 115.044 47.4697 118.001 45.9235C120.957 44.3774 124.27 43.6128 127.957 43.6128C131.644 43.6128 134.958 44.3944 137.914 45.9575ZM124.372 54.351C123.217 55.0986 122.3 56.118 121.603 57.4093C120.923 58.7006 120.566 60.1618 120.566 61.7929C120.566 63.424 120.906 64.8852 121.603 66.1935C122.283 67.5018 123.217 68.5383 124.372 69.3028C125.528 70.0674 126.785 70.4412 128.11 70.4412C129.436 70.4412 130.676 70.0674 131.78 69.3198C132.885 68.5722 133.751 67.5358 134.397 66.2105C135.026 64.8852 135.348 63.407 135.348 61.7759C135.348 60.1448 135.026 58.6836 134.397 57.3753C133.768 56.067 132.885 55.0476 131.78 54.317C130.676 53.5864 129.453 53.2296 128.11 53.2296C126.768 53.2296 125.528 53.6034 124.372 54.351Z" fill="#151515"/>
<path d="M150.589 44.3604H162.942L171.692 62.5915L180.391 44.3604H192.76V79.2764H182.549V60.1448L175.464 75.8952H167.869L160.784 60.1448V79.2764H150.589V44.3604Z" fill="#151515"/>
<path d="M496.334 80.0841C489.916 80.0841 483.716 79.3547 477.735 77.896C471.755 76.4373 466.831 74.5409 462.966 72.207L471.281 53.3894C474.927 55.5046 478.975 57.2186 483.424 58.5314C487.947 59.7713 492.323 60.3913 496.553 60.3913C499.033 60.3913 500.966 60.2454 502.351 59.9537C503.81 59.589 504.868 59.1149 505.524 58.5314C506.181 57.875 506.509 57.1091 506.509 56.2339C506.509 54.8481 505.743 53.7541 504.211 52.9518C502.68 52.1495 500.637 51.493 498.085 50.9825C495.605 50.399 492.87 49.8155 489.879 49.232C486.889 48.5756 483.862 47.7368 480.799 46.7157C477.808 45.6946 475.037 44.3453 472.484 42.6678C470.004 40.9902 467.998 38.8021 466.467 36.1035C464.935 33.3319 464.169 29.9039 464.169 25.8195C464.169 21.0786 465.482 16.7754 468.108 12.9097C470.806 8.97117 474.781 5.83491 480.033 3.50094C485.357 1.16698 491.958 0 499.835 0C505.014 0 510.119 0.547022 515.152 1.64107C520.184 2.73511 524.706 4.41265 528.718 6.67367L520.95 25.3818C517.158 23.4855 513.474 22.0632 509.9 21.1151C506.399 20.1669 502.971 19.6928 499.616 19.6928C497.136 19.6928 495.167 19.9116 493.708 20.3492C492.25 20.7869 491.192 21.3703 490.536 22.0997C489.952 22.8291 489.661 23.6314 489.661 24.5066C489.661 25.8195 490.426 26.877 491.958 27.6793C493.49 28.4087 495.495 29.0287 497.975 29.5392C500.528 30.0498 503.3 30.5968 506.29 31.1803C509.353 31.7638 512.38 32.5661 515.371 33.5872C518.361 34.6083 521.096 35.9576 523.576 37.6351C526.129 39.3127 528.171 41.5008 529.703 44.1994C531.234 46.8981 532 50.2531 532 54.2646C532 58.9326 530.651 63.2358 527.952 67.1744C525.326 71.04 521.388 74.1762 516.136 76.5831C510.885 78.9171 504.284 80.0841 496.334 80.0841Z" fill="#151515"/>
<path d="M383.162 78.3336V1.75049H424.079C434.655 1.75049 442.459 3.64683 447.492 7.43953C452.525 11.1593 455.041 15.9366 455.041 21.7715C455.041 25.6371 453.947 29.1016 451.759 32.1649C449.644 35.1553 446.544 37.5258 442.459 39.2762C438.375 41.0267 433.342 41.9019 427.362 41.9019L429.55 35.9941C435.53 35.9941 440.672 36.8329 444.976 38.5104C449.352 40.1879 452.707 42.6313 455.041 45.8405C457.448 48.9768 458.651 52.7695 458.651 57.2186C458.651 63.8558 455.88 69.0343 450.336 72.754C444.866 76.4738 436.843 78.3336 426.267 78.3336H383.162ZM408.544 60.2819H424.079C426.924 60.2819 429.039 59.7713 430.425 58.7502C431.884 57.7291 432.613 56.2339 432.613 54.2646C432.613 52.2954 431.884 50.8002 430.425 49.7791C429.039 48.758 426.924 48.2474 424.079 48.2474H406.793V31.1803H420.578C423.496 31.1803 425.611 30.7062 426.924 29.758C428.31 28.7369 429.003 27.3147 429.003 25.4913C429.003 23.5949 428.31 22.1727 426.924 21.2245C425.611 20.2763 423.496 19.8022 420.578 19.8022H408.544V60.2819Z" fill="#151515"/>
<path d="M330.576 80.0841C324.377 80.0841 318.615 79.0994 313.29 77.1302C308.039 75.1609 303.48 72.3893 299.615 68.8154C295.749 65.1686 292.722 60.9018 290.534 56.0151C288.419 51.1284 287.361 45.804 287.361 40.042C287.361 34.2071 288.419 28.8828 290.534 24.069C292.722 19.1823 295.749 14.9519 299.615 11.3781C303.48 7.73125 308.039 4.9232 313.29 2.95392C318.615 0.984641 324.377 0 330.576 0C336.849 0 342.611 0.984641 347.862 2.95392C353.113 4.9232 357.672 7.73125 361.538 11.3781C365.403 14.9519 368.394 19.1823 370.509 24.069C372.697 28.8828 373.791 34.2071 373.791 40.042C373.791 45.804 372.697 51.1284 370.509 56.0151C368.394 60.9018 365.403 65.1686 361.538 68.8154C357.672 72.3893 353.113 75.1609 347.862 77.1302C342.611 79.0994 336.849 80.0841 330.576 80.0841ZM330.576 59.1878C332.983 59.1878 335.208 58.7502 337.25 57.875C339.365 56.9997 341.188 55.7598 342.72 54.1552C344.325 52.4777 345.565 50.4719 346.44 48.138C347.315 45.7311 347.753 43.0324 347.753 40.042C347.753 37.0517 347.315 34.3895 346.44 32.0555C345.565 29.6486 344.325 27.6429 342.72 26.0383C341.188 24.3607 339.365 23.0843 337.25 22.2091C335.208 21.3339 332.983 20.8963 330.576 20.8963C328.169 20.8963 325.908 21.3339 323.793 22.2091C321.751 23.0843 319.927 24.3607 318.323 26.0383C316.791 27.6429 315.588 29.6486 314.712 32.0555C313.837 34.3895 313.4 37.0517 313.4 40.042C313.4 43.0324 313.837 45.7311 314.712 48.138C315.588 50.4719 316.791 52.4777 318.323 54.1552C319.927 55.7598 321.751 56.9997 323.793 57.875C325.908 58.7502 328.169 59.1878 330.576 59.1878Z" fill="#151515"/>
<path d="M246.967 80.0841C240.986 80.0841 235.589 79.1359 230.775 77.2396C225.961 75.2703 221.95 72.4258 218.741 68.706L232.635 52.2954C234.677 54.7752 236.683 56.6715 238.652 57.9844C240.622 59.2243 242.664 59.8443 244.779 59.8443C250.322 59.8443 253.094 56.6715 253.094 50.3261V21.2245H227.055V1.75049H278.585V48.7944C278.585 59.2973 275.886 67.1379 270.489 72.3164C265.092 77.4949 257.251 80.0841 246.967 80.0841Z" fill="#151515"/>
</svg>
